<svg width="22" height="20" viewBox="0 0 22 20" fill="none" xmlns="http://www.w3.org/2000/svg">
<mask id="mask0_13_461" style="mask-type:alpha" maskUnits="userSpaceOnUse" x="0" y="0" width="22" height="20">
<rect x="0.333374" width="21.1111" height="20" fill="#D9D9D9"/>
</mask>
<g mask="url(#mask0_13_461)">
<path d="M4.73143 18.3333C4.24763 18.3333 3.83347 18.1701 3.48895 17.8437C3.14443 17.5173 2.97217 17.125 2.97217 16.6666V4.99996C2.97217 4.54163 3.14443 4.14926 3.48895 3.82288C3.83347 3.49649 4.24763 3.33329 4.73143 3.33329H5.61106V1.66663H7.37032V3.33329H14.4074V1.66663H16.1666V3.33329H17.0462C17.53 3.33329 17.9442 3.49649 18.2887 3.82288C18.6332 4.14926 18.8055 4.54163 18.8055 4.99996V16.6666C18.8055 17.125 18.6332 17.5173 18.2887 17.8437C17.9442 18.1701 17.53 18.3333 17.0462 18.3333H4.73143ZM4.73143 16.6666H17.0462V8.33329H4.73143V16.6666ZM4.73143 6.66663H17.0462V4.99996H4.73143V6.66663Z" fill="white"/>
</g>
</svg>
