<svg width="22" height="20" viewBox="0 0 22 20" fill="none" xmlns="http://www.w3.org/2000/svg">
<mask id="mask0_13_450" style="mask-type:alpha" maskUnits="userSpaceOnUse" x="0" y="0" width="22" height="20">
<rect x="0.444458" width="21.1111" height="20" fill="#D9D9D9"/>
</mask>
<g mask="url(#mask0_13_450)">
<path d="M17.6852 17.5L12.1436 12.25C11.7037 12.5833 11.198 12.8472 10.6262 13.0417C10.0544 13.2361 9.44603 13.3333 8.80097 13.3333C7.20297 13.3333 5.85054 12.809 4.74367 11.7604C3.63681 10.7118 3.08337 9.43056 3.08337 7.91667C3.08337 6.40278 3.63681 5.12153 4.74367 4.07292C5.85054 3.02431 7.20297 2.5 8.80097 2.5C10.399 2.5 11.7514 3.02431 12.8583 4.07292C13.9651 5.12153 14.5186 6.40278 14.5186 7.91667C14.5186 8.52778 14.4159 9.10417 14.2107 9.64583C14.0054 10.1875 13.7269 10.6667 13.375 11.0833L18.9167 16.3333L17.6852 17.5ZM8.80097 11.6667C9.9005 11.6667 10.8351 11.3021 11.6048 10.5729C12.3745 9.84375 12.7593 8.95833 12.7593 7.91667C12.7593 6.875 12.3745 5.98958 11.6048 5.26042C10.8351 4.53125 9.9005 4.16667 8.80097 4.16667C7.70143 4.16667 6.76682 4.53125 5.99715 5.26042C5.22747 5.98958 4.84263 6.875 4.84263 7.91667C4.84263 8.95833 5.22747 9.84375 5.99715 10.5729C6.76682 11.3021 7.70143 11.6667 8.80097 11.6667Z" fill="white"/>
</g>
</svg>
